<mxfile host="app.diagrams.net" modified="2023-12-03T20:15:21.099Z" agent="Mozilla/5.0 (Windows NT 10.0; Win64; x64) AppleWebKit/537.36 (KHTML, like Gecko) Chrome/119.0.0.0 Safari/537.36 Edg/119.0.0.0" etag="qILk46mPCcpc-gHdykh4" version="22.1.4" type="device">
  <diagram name="Страница — 1" id="e6d-LzjELbtayF8ROmFh">
    <mxGraphModel dx="784" dy="479" grid="1" gridSize="10" guides="1" tooltips="1" connect="1" arrows="1" fold="1" page="1" pageScale="1" pageWidth="827" pageHeight="1169" math="0" shadow="0">
      <root>
        <mxCell id="0" />
        <mxCell id="1" parent="0" />
        <mxCell id="6tAdIe98jvtp2TXsaNz6-3" value="" style="edgeStyle=orthogonalEdgeStyle;rounded=0;orthogonalLoop=1;jettySize=auto;html=1;" parent="1" source="jPC34qyZusBdzCv74OJ4-113" target="6tAdIe98jvtp2TXsaNz6-1" edge="1">
          <mxGeometry relative="1" as="geometry" />
        </mxCell>
        <mxCell id="jPC34qyZusBdzCv74OJ4-113" value="&lt;font style=&quot;font-size: 10px;&quot;&gt;void removeElem (double **arr, int *len, int ind)&lt;/font&gt;" style="strokeWidth=1;html=1;shape=mxgraph.flowchart.terminator;whiteSpace=wrap;" parent="1" vertex="1">
          <mxGeometry x="170" y="50" width="100" height="60" as="geometry" />
        </mxCell>
        <mxCell id="jPC34qyZusBdzCv74OJ4-144" value="1" style="text;strokeColor=none;fillColor=none;html=1;fontSize=24;fontStyle=1;verticalAlign=middle;align=center;" parent="1" vertex="1">
          <mxGeometry x="170" width="100" height="40" as="geometry" />
        </mxCell>
        <mxCell id="jPC34qyZusBdzCv74OJ4-145" value="2" style="text;strokeColor=none;fillColor=none;html=1;fontSize=24;fontStyle=1;verticalAlign=middle;align=center;" parent="1" vertex="1">
          <mxGeometry x="330" width="100" height="40" as="geometry" />
        </mxCell>
        <mxCell id="jPC34qyZusBdzCv74OJ4-147" value="D" style="text;strokeColor=none;fillColor=none;html=1;fontSize=24;fontStyle=1;verticalAlign=middle;align=center;" parent="1" vertex="1">
          <mxGeometry x="90" y="420" width="100" height="40" as="geometry" />
        </mxCell>
        <mxCell id="jPC34qyZusBdzCv74OJ4-148" value="C" style="text;strokeColor=none;fillColor=none;html=1;fontSize=24;fontStyle=1;verticalAlign=middle;align=center;" parent="1" vertex="1">
          <mxGeometry x="90" y="300" width="100" height="40" as="geometry" />
        </mxCell>
        <mxCell id="jPC34qyZusBdzCv74OJ4-149" value="B" style="text;strokeColor=none;fillColor=none;html=1;fontSize=24;fontStyle=1;verticalAlign=middle;align=center;" parent="1" vertex="1">
          <mxGeometry x="90" y="180" width="100" height="40" as="geometry" />
        </mxCell>
        <mxCell id="jPC34qyZusBdzCv74OJ4-150" value="A" style="text;strokeColor=none;fillColor=none;html=1;fontSize=24;fontStyle=1;verticalAlign=middle;align=center;" parent="1" vertex="1">
          <mxGeometry x="90" y="60" width="100" height="40" as="geometry" />
        </mxCell>
        <mxCell id="jPC34qyZusBdzCv74OJ4-151" value="E" style="text;strokeColor=none;fillColor=none;html=1;fontSize=24;fontStyle=1;verticalAlign=middle;align=center;" parent="1" vertex="1">
          <mxGeometry x="90" y="540" width="100" height="40" as="geometry" />
        </mxCell>
        <mxCell id="jPC34qyZusBdzCv74OJ4-152" value="F" style="text;strokeColor=none;fillColor=none;html=1;fontSize=24;fontStyle=1;verticalAlign=middle;align=center;" parent="1" vertex="1">
          <mxGeometry x="90" y="660" width="100" height="40" as="geometry" />
        </mxCell>
        <mxCell id="jPC34qyZusBdzCv74OJ4-164" value="" style="edgeStyle=orthogonalEdgeStyle;rounded=0;orthogonalLoop=1;jettySize=auto;html=1;" parent="1" source="jPC34qyZusBdzCv74OJ4-157" target="jPC34qyZusBdzCv74OJ4-163" edge="1">
          <mxGeometry relative="1" as="geometry" />
        </mxCell>
        <mxCell id="jPC34qyZusBdzCv74OJ4-157" value="*temp == NULL?" style="rhombus;whiteSpace=wrap;html=1;" parent="1" vertex="1">
          <mxGeometry x="170" y="530" width="100" height="60" as="geometry" />
        </mxCell>
        <mxCell id="jPC34qyZusBdzCv74OJ4-160" value="&lt;font style=&quot;font-size: 15px;&quot;&gt;да&lt;/font&gt;" style="text;strokeColor=none;fillColor=none;html=1;fontSize=24;fontStyle=1;verticalAlign=middle;align=center;" parent="1" vertex="1">
          <mxGeometry x="230" y="524" width="100" height="40" as="geometry" />
        </mxCell>
        <mxCell id="jPC34qyZusBdzCv74OJ4-161" value="&lt;span style=&quot;font-size: 10px;&quot;&gt;Конец&lt;/span&gt;" style="strokeWidth=1;html=1;shape=mxgraph.flowchart.terminator;whiteSpace=wrap;" parent="1" vertex="1">
          <mxGeometry x="330" y="650" width="100" height="60" as="geometry" />
        </mxCell>
        <mxCell id="jPC34qyZusBdzCv74OJ4-162" style="edgeStyle=orthogonalEdgeStyle;rounded=0;orthogonalLoop=1;jettySize=auto;html=1;" parent="1" source="jPC34qyZusBdzCv74OJ4-157" target="jPC34qyZusBdzCv74OJ4-161" edge="1">
          <mxGeometry relative="1" as="geometry">
            <mxPoint x="380" y="640" as="targetPoint" />
            <Array as="points">
              <mxPoint x="380" y="560" />
            </Array>
          </mxGeometry>
        </mxCell>
        <mxCell id="6tAdIe98jvtp2TXsaNz6-11" value="" style="edgeStyle=orthogonalEdgeStyle;rounded=0;orthogonalLoop=1;jettySize=auto;html=1;" parent="1" source="jPC34qyZusBdzCv74OJ4-163" target="jPC34qyZusBdzCv74OJ4-161" edge="1">
          <mxGeometry relative="1" as="geometry" />
        </mxCell>
        <mxCell id="jPC34qyZusBdzCv74OJ4-163" value="*arr = temp&lt;br&gt;*len -= 1" style="rounded=0;whiteSpace=wrap;html=1;" parent="1" vertex="1">
          <mxGeometry x="170" y="650" width="100" height="60" as="geometry" />
        </mxCell>
        <mxCell id="jPC34qyZusBdzCv74OJ4-165" value="&lt;font style=&quot;font-size: 15px;&quot;&gt;нет&lt;/font&gt;" style="text;strokeColor=none;fillColor=none;html=1;fontSize=24;fontStyle=1;verticalAlign=middle;align=center;" parent="1" vertex="1">
          <mxGeometry x="190" y="570" width="100" height="40" as="geometry" />
        </mxCell>
        <mxCell id="6tAdIe98jvtp2TXsaNz6-4" value="" style="edgeStyle=orthogonalEdgeStyle;rounded=0;orthogonalLoop=1;jettySize=auto;html=1;" parent="1" source="6tAdIe98jvtp2TXsaNz6-1" target="6tAdIe98jvtp2TXsaNz6-2" edge="1">
          <mxGeometry relative="1" as="geometry" />
        </mxCell>
        <mxCell id="6tAdIe98jvtp2TXsaNz6-1" value="i = ind" style="rounded=0;whiteSpace=wrap;html=1;" parent="1" vertex="1">
          <mxGeometry x="170" y="170" width="100" height="60" as="geometry" />
        </mxCell>
        <mxCell id="6tAdIe98jvtp2TXsaNz6-6" value="" style="edgeStyle=orthogonalEdgeStyle;rounded=0;orthogonalLoop=1;jettySize=auto;html=1;" parent="1" source="6tAdIe98jvtp2TXsaNz6-2" target="6tAdIe98jvtp2TXsaNz6-5" edge="1">
          <mxGeometry relative="1" as="geometry" />
        </mxCell>
        <mxCell id="6tAdIe98jvtp2TXsaNz6-8" value="" style="edgeStyle=orthogonalEdgeStyle;rounded=0;orthogonalLoop=1;jettySize=auto;html=1;" parent="1" source="6tAdIe98jvtp2TXsaNz6-2" edge="1">
          <mxGeometry relative="1" as="geometry">
            <mxPoint x="220" y="410" as="targetPoint" />
          </mxGeometry>
        </mxCell>
        <mxCell id="6tAdIe98jvtp2TXsaNz6-2" value="i &amp;lt; (*len)-1?" style="rhombus;whiteSpace=wrap;html=1;" parent="1" vertex="1">
          <mxGeometry x="170" y="290" width="100" height="60" as="geometry" />
        </mxCell>
        <mxCell id="6tAdIe98jvtp2TXsaNz6-7" style="edgeStyle=orthogonalEdgeStyle;rounded=0;orthogonalLoop=1;jettySize=auto;html=1;entryX=0.5;entryY=0;entryDx=0;entryDy=0;" parent="1" source="6tAdIe98jvtp2TXsaNz6-5" target="6tAdIe98jvtp2TXsaNz6-2" edge="1">
          <mxGeometry relative="1" as="geometry">
            <mxPoint x="380" y="200" as="targetPoint" />
            <Array as="points">
              <mxPoint x="380" y="260" />
              <mxPoint x="220" y="260" />
            </Array>
          </mxGeometry>
        </mxCell>
        <mxCell id="6tAdIe98jvtp2TXsaNz6-5" value="(*arr)[i] =&lt;br&gt;(*arr)[i+1];&lt;br&gt;i += 1" style="rounded=0;whiteSpace=wrap;html=1;" parent="1" vertex="1">
          <mxGeometry x="330" y="290" width="100" height="60" as="geometry" />
        </mxCell>
        <mxCell id="6tAdIe98jvtp2TXsaNz6-9" value="&lt;font style=&quot;font-size: 15px;&quot;&gt;да&lt;/font&gt;" style="text;strokeColor=none;fillColor=none;html=1;fontSize=24;fontStyle=1;verticalAlign=middle;align=center;" parent="1" vertex="1">
          <mxGeometry x="230" y="280" width="100" height="40" as="geometry" />
        </mxCell>
        <mxCell id="6tAdIe98jvtp2TXsaNz6-10" value="&lt;font style=&quot;font-size: 15px;&quot;&gt;нет&lt;/font&gt;" style="text;strokeColor=none;fillColor=none;html=1;fontSize=24;fontStyle=1;verticalAlign=middle;align=center;" parent="1" vertex="1">
          <mxGeometry x="190" y="330" width="100" height="40" as="geometry" />
        </mxCell>
        <mxCell id="cXxxRgFUOHfQhmvc9ccN-2" style="edgeStyle=orthogonalEdgeStyle;rounded=0;orthogonalLoop=1;jettySize=auto;html=1;" edge="1" parent="1" source="cXxxRgFUOHfQhmvc9ccN-1" target="jPC34qyZusBdzCv74OJ4-157">
          <mxGeometry relative="1" as="geometry" />
        </mxCell>
        <mxCell id="cXxxRgFUOHfQhmvc9ccN-1" value="Выделение памяти *temp" style="rounded=0;whiteSpace=wrap;html=1;" vertex="1" parent="1">
          <mxGeometry x="170" y="410" width="100" height="60" as="geometry" />
        </mxCell>
      </root>
    </mxGraphModel>
  </diagram>
</mxfile>
